<?xml version="1.0" encoding="UTF-8"?>
<svg id="Layer_1" xmlns="http://www.w3.org/2000/svg" viewBox="0 0 1422.04 450.3">
  <g id="Layer_3">
    <g>
      <path d="M103.12,321.98v-149.43c0,61.9,50.18,112.07,112.07,112.07" fill="none" stroke="#a0d6e0" stroke-linecap="round" stroke-miterlimit="10" stroke-width="20"/>
      <circle cx="103.12" cy="135.18" r="37.36" fill="#a0d6e0" stroke="#a0d6e0" stroke-linecap="round" stroke-miterlimit="10" stroke-width="20"/>
      <path d="M401.98,321.98v-149.43c0,61.9-50.18,112.07-112.07,112.07" fill="none" stroke="#a0d6e0" stroke-linecap="round" stroke-miterlimit="10" stroke-width="20"/>
      <circle cx="401.98" cy="135.18" r="37.36" fill="#a0d6e0" stroke="#a0d6e0" stroke-linecap="round" stroke-miterlimit="10" stroke-width="20"/>
      <circle cx="252.57" cy="284.65" r="37.36" fill="#a0d6e0" stroke="#a0d6e0" stroke-linecap="round" stroke-miterlimit="10" stroke-width="20"/>
    </g>
  </g>
  <g>
    <path d="M546.93,336.23c-16.79,0-31.67-3.68-44.63-11.04-12.95-7.35-23.12-17.57-30.48-30.64-7.36-13.06-11.04-27.99-11.04-44.79s3.47-31.98,10.42-44.94,16.53-23.17,28.77-30.64c12.23-7.46,26.33-11.19,42.29-11.19s29.49,3.58,41.21,10.73c11.71,7.15,20.78,17.06,27.21,29.7,6.43,12.65,9.64,27.06,9.64,43.23,0,3.32-1.04,5.97-3.11,7.93-2.07,1.97-4.77,2.96-8.08,2.96h-132.18v-19.9h134.66l-13.37,9.64c.2-12.02-1.97-22.8-6.54-32.35-4.56-9.54-11.04-17-19.44-22.39-8.4-5.39-18.4-8.08-30.02-8.08s-22.19,2.8-31.1,8.4c-8.91,5.6-15.81,13.32-20.68,23.17-4.87,9.85-7.31,21.1-7.31,33.75s2.74,23.84,8.25,33.58c5.49,9.75,13.01,17.42,22.54,23.02,9.54,5.6,20.52,8.4,32.96,8.4,7.46,0,14.98-1.29,22.54-3.89,7.57-2.59,13.63-5.86,18.19-9.79,2.28-1.87,4.87-2.85,7.77-2.96,2.9-.1,5.39.68,7.46,2.33,2.69,2.48,4.1,5.18,4.2,8.08.1,2.9-1.09,5.4-3.58,7.46-6.84,5.81-15.55,10.63-26.12,14.46-10.58,3.84-20.74,5.75-30.48,5.75h.03Z" fill="#a0d6e0"/>
    <path d="M672.58,334.67c-3.73,0-6.63-1.03-8.71-3.11-2.07-2.07-3.11-4.98-3.11-8.71v-146.48c0-3.73,1.03-6.63,3.11-8.71,2.07-2.07,4.98-3.11,8.71-3.11s6.63,1.04,8.71,3.11c2.06,2.07,3.11,4.98,3.11,8.71v146.48c0,3.73-1.04,6.63-3.11,8.71-2.07,2.07-4.98,3.11-8.71,3.11ZM670.71,229.86c.62-12.86,3.99-24.36,10.11-34.52,6.12-10.16,14.09-18.14,23.95-23.94,9.85-5.81,20.78-8.71,32.81-8.71,9.54,0,16.9,1.35,22.08,4.04,5.18,2.7,7.15,6.63,5.91,11.81-.83,3.11-2.24,5.18-4.2,6.22-1.98,1.04-4.35,1.45-7.15,1.25-2.8-.2-5.97-.41-9.48-.62-11.61-1.03-21.92.16-30.94,3.58-9.02,3.42-16.17,8.65-21.46,15.71-5.29,7.05-7.93,15.45-7.93,25.19h-13.7Z" fill="#a0d6e0"/>
    <path d="M865.71,336.23c-16.38,0-30.9-3.68-43.54-11.04-12.65-7.35-22.54-17.57-29.7-30.64-7.15-13.06-10.73-27.99-10.73-44.79s3.73-32.04,11.19-45.1,17.73-23.27,30.79-30.63c13.06-7.35,27.89-11.04,44.48-11.04s31.67,3.69,44.63,11.04c12.95,7.36,23.11,17.57,30.48,30.63,7.35,13.06,11.14,28.1,11.35,45.1l-14,7.46c0,15.34-3.21,28.97-9.64,40.9-6.43,11.92-15.29,21.25-26.59,27.99-11.3,6.74-24.21,10.11-38.72,10.11h.01ZM868.82,401.85c-16.38,0-30.79-3.06-43.23-9.17-12.44-6.12-22.71-14.46-30.79-25.04-2.28-2.48-3.27-5.18-2.96-8.08.31-2.9,1.82-5.29,4.52-7.15,2.69-1.87,5.7-2.48,9.02-1.87,3.31.62,5.91,2.17,7.77,4.67,6.01,7.46,13.73,13.47,23.17,18.04,9.43,4.56,20.37,6.84,32.81,6.84,11.61,0,22.08-2.8,31.41-8.4,9.33-5.6,16.74-13.48,22.23-23.64,5.49-10.16,8.25-22.08,8.25-35.77v-47.27l9.02-18.04,14.62,2.8v63.44c0,16.79-3.73,31.88-11.19,45.25-7.46,13.37-17.62,23.95-30.48,31.72-12.86,7.77-27.58,11.66-44.16,11.66h-.01ZM868.19,314.46c12.23,0,23.06-2.74,32.5-8.25,9.43-5.49,16.85-13.12,22.23-22.86,5.39-9.74,8.08-20.94,8.08-33.58s-2.7-23.9-8.08-33.75c-5.4-9.85-12.8-17.52-22.23-23.02-9.44-5.49-20.26-8.25-32.5-8.25s-23.12,2.75-32.66,8.25c-9.54,5.49-17.01,13.17-22.39,23.02-5.4,9.85-8.08,21.1-8.08,33.75s2.69,23.84,8.08,33.58c5.39,9.75,12.86,17.37,22.39,22.86,9.54,5.49,20.42,8.25,32.66,8.25Z" fill="#a0d6e0"/>
    <path d="M1018.09,132.22c-4.56,0-8.5-1.66-11.81-4.98-3.32-3.31-4.98-7.35-4.98-12.13,0-5.18,1.71-9.28,5.13-12.29,3.42-3,7.41-4.5,11.98-4.5s8.25,1.51,11.66,4.5c3.42,3.01,5.13,7.11,5.13,12.29,0,4.77-1.67,8.82-4.98,12.13-3.32,3.32-7.36,4.98-12.13,4.98ZM1018.4,334.67c-3.73,0-6.69-1.09-8.86-3.27s-3.27-5.13-3.27-8.87v-145.85c0-3.73,1.09-6.69,3.27-8.86,2.17-2.18,5.13-3.27,8.86-3.27,3.53,0,6.38,1.09,8.56,3.27,2.18,2.17,3.27,5.13,3.27,8.86v145.85c0,3.73-1.09,6.69-3.27,8.87s-5.03,3.27-8.56,3.27Z" fill="#a0d6e0"/>
    <path d="M1150.57,336.23c-12.23,0-24.36-2.07-36.39-6.22-12.03-4.15-21.77-10.36-29.23-18.66-2.28-2.48-3.21-5.29-2.8-8.4.41-3.11,1.97-5.81,4.67-8.08,2.9-2.07,5.91-2.9,9.02-2.48,3.11.42,5.7,1.76,7.77,4.04,4.98,5.81,11.56,10.27,19.75,13.37s17.27,4.67,27.21,4.67c15.34,0,26.44-2.64,33.27-7.93s10.36-11.66,10.58-19.13c0-7.46-3.53-13.63-10.58-18.5-7.05-4.87-18.66-8.65-34.83-11.35-20.94-3.31-36.28-9.12-46.02-17.42-9.75-8.29-14.62-18.14-14.62-29.54,0-10.58,2.8-19.38,8.4-26.44,5.6-7.04,13.06-12.33,22.39-15.86,9.33-3.53,19.6-5.29,30.79-5.29,13.89,0,25.87,2.39,35.92,7.15,10.05,4.77,18.19,11.19,24.41,19.29,2.07,2.7,2.9,5.49,2.48,8.4-.42,2.9-2.07,5.29-4.98,7.15-2.48,1.45-5.34,1.92-8.56,1.4-3.21-.52-5.97-2.02-8.25-4.52-5.18-6.01-11.19-10.42-18.04-13.21-6.85-2.8-14.73-4.2-23.64-4.2-11.41,0-20.52,2.33-27.37,7-6.85,4.67-10.27,10.52-10.27,17.58,0,4.77,1.29,8.91,3.89,12.44,2.59,3.53,7.04,6.63,13.37,9.33,6.32,2.7,15.19,4.98,26.59,6.84,15.55,2.48,27.83,6.17,36.85,11.04,9.02,4.87,15.45,10.58,19.29,17.1,3.84,6.54,5.75,13.63,5.75,21.31,0,9.75-2.85,18.3-8.56,25.66-5.71,7.36-13.58,13.12-23.64,17.27-10.06,4.15-21.62,6.22-34.68,6.22h.04Z" fill="#a0d6e0"/>
    <path d="M1247.91,191.61c-3.11,0-5.71-.98-7.77-2.96-2.07-1.97-3.11-4.41-3.11-7.31,0-3.11,1.03-5.64,3.11-7.62,2.07-1.97,4.67-2.96,7.77-2.96h79.31c3.11,0,5.7.99,7.77,2.96,2.06,1.98,3.11,4.5,3.11,7.62,0,2.9-1.04,5.34-3.11,7.31-2.07,1.98-4.67,2.96-7.77,2.96h-79.31ZM1325.35,334.67c-10.99,0-20.79-2.59-29.39-7.77-8.6-5.18-15.39-12.29-20.37-21.31-4.98-9.02-7.46-19.33-7.46-30.94V122.57c0-3.53,1.09-6.43,3.27-8.71,2.17-2.28,5.02-3.42,8.56-3.42s6.43,1.14,8.71,3.42,3.42,5.18,3.42,8.71v152.08c0,10.58,3.11,19.23,9.33,25.97,6.22,6.74,14.2,10.11,23.95,10.11h8.4c3.31,0,6.01,1.14,8.08,3.42,2.06,2.28,3.11,5.18,3.11,8.71s-1.25,6.38-3.73,8.56c-2.48,2.17-5.6,3.27-9.33,3.27h-6.54Z" fill="#a0d6e0"/>
  </g>
</svg>