<?xml version="1.0" encoding="UTF-8"?>
<svg id="Layer_1" xmlns="http://www.w3.org/2000/svg" xmlns:xlink="http://www.w3.org/1999/xlink" viewBox="0 0 1422.04 450.3">
  <defs>
    <radialGradient id="radial-gradient" cx="2781.7" cy="307" fx="2781.7" fy="307" r="1.44" gradientTransform="translate(53.85 34.67) scale(.6 .89)" gradientUnits="userSpaceOnUse">
      <stop offset="0" stop-color="#374151"/>
      <stop offset="1" stop-color="#1f2937"/>
    </radialGradient>
  </defs>
  <rect x="9" y="9" width="1404" height="432" rx="128" ry="128" fill="url(#radial-gradient)"/>
  <g>
    <g id="Layer_3">
      <g>
        <path d="M152.95,316.51v-139c0,57.58,46.68,104.25,104.25,104.25" fill="none" stroke="#a0d6e0" stroke-linecap="round" stroke-miterlimit="10" stroke-width="20"/>
        <circle cx="152.95" cy="142.75" r="34.75" fill="#a0d6e0" stroke="#a0d6e0" stroke-linecap="round" stroke-miterlimit="10" stroke-width="20"/>
        <path d="M430.95,316.51v-139c0,57.58-46.68,104.25-104.25,104.25" fill="none" stroke="#a0d6e0" stroke-linecap="round" stroke-miterlimit="10" stroke-width="20"/>
        <circle cx="430.95" cy="142.75" r="34.75" fill="#a0d6e0" stroke="#a0d6e0" stroke-linecap="round" stroke-miterlimit="10" stroke-width="20"/>
        <circle cx="291.95" cy="281.76" r="34.75" transform="translate(-9.8 553) rotate(-85.93)" fill="#a0d6e0" stroke="#a0d6e0" stroke-linecap="round" stroke-miterlimit="10" stroke-width="20"/>
      </g>
    </g>
    <g>
      <path d="M565.78,329.76c-15.62,0-29.46-3.42-41.51-10.27-12.05-6.84-21.51-16.34-28.35-28.5-6.85-12.15-10.27-26.04-10.27-41.66s3.23-29.75,9.69-41.8c6.46-12.05,15.38-21.55,26.76-28.5,11.38-6.94,24.49-10.41,39.34-10.41s27.43,3.33,38.33,9.98c10.89,6.65,19.33,15.87,25.31,27.63,5.98,11.77,8.97,25.17,8.97,40.21,0,3.09-.97,5.55-2.89,7.38-1.93,1.83-4.44,2.75-7.52,2.75h-122.95v-18.51h125.26l-12.44,8.97c.19-11.18-1.83-21.21-6.08-30.09-4.24-8.87-10.27-15.81-18.08-20.83-7.81-5.01-17.12-7.52-27.92-7.52s-20.64,2.6-28.93,7.81c-8.29,5.21-14.71,12.39-19.24,21.55-4.53,9.16-6.8,19.63-6.8,31.39s2.55,22.18,7.67,31.24c5.11,9.07,12.1,16.2,20.97,21.41,8.87,5.21,19.09,7.81,30.66,7.81,6.94,0,13.93-1.2,20.97-3.62,7.04-2.41,12.68-5.45,16.92-9.11,2.12-1.74,4.53-2.65,7.23-2.75,2.7-.09,5.01.63,6.94,2.17,2.5,2.31,3.81,4.82,3.91,7.52.09,2.7-1.01,5.02-3.33,6.94-6.36,5.4-14.46,9.89-24.3,13.45-9.84,3.57-19.29,5.35-28.35,5.35Z" fill="#a0d6e0"/>
      <path d="M682.65,328.31c-3.47,0-6.17-.96-8.1-2.89-1.93-1.93-2.89-4.63-2.89-8.1v-136.25c0-3.47.96-6.17,2.89-8.1,1.93-1.93,4.63-2.89,8.1-2.89s6.17.97,8.1,2.89c1.92,1.93,2.89,4.63,2.89,8.1v136.25c0,3.47-.97,6.17-2.89,8.1-1.93,1.93-4.63,2.89-8.1,2.89ZM680.91,230.82c.58-11.96,3.71-22.66,9.4-32.11,5.69-9.45,13.11-16.87,22.28-22.27,9.16-5.4,19.33-8.1,30.52-8.1,8.87,0,15.72,1.26,20.54,3.76,4.82,2.51,6.65,6.17,5.5,10.99-.77,2.89-2.08,4.82-3.91,5.79-1.84.97-4.05,1.35-6.65,1.16-2.6-.19-5.55-.38-8.82-.58-10.8-.96-20.39.15-28.78,3.33-8.39,3.18-15.04,8.05-19.96,14.61-4.92,6.56-7.38,14.37-7.38,23.43h-12.73Z" fill="#a0d6e0"/>
      <path d="M862.3,329.76c-15.24,0-28.74-3.42-40.5-10.27-11.77-6.84-20.97-16.34-27.63-28.5-6.65-12.15-9.98-26.04-9.98-41.66s3.47-29.8,10.41-41.95c6.94-12.15,16.49-21.65,28.64-28.49,12.15-6.84,25.94-10.27,41.37-10.27s29.46,3.43,41.51,10.27c12.05,6.85,21.5,16.34,28.35,28.49,6.84,12.15,10.36,26.14,10.56,41.95l-13.02,6.94c0,14.27-2.99,26.95-8.97,38.04-5.98,11.09-14.22,19.77-24.73,26.04-10.51,6.27-22.52,9.4-36.02,9.4ZM865.19,390.8c-15.24,0-28.64-2.85-40.21-8.53-11.57-5.69-21.12-13.45-28.64-23.29-2.12-2.31-3.04-4.82-2.75-7.52.29-2.7,1.69-4.92,4.2-6.65,2.5-1.74,5.3-2.31,8.39-1.74,3.08.58,5.5,2.02,7.23,4.34,5.59,6.94,12.77,12.53,21.55,16.78,8.77,4.24,18.95,6.36,30.52,6.36,10.8,0,20.54-2.6,29.22-7.81s15.57-12.54,20.68-21.99c5.11-9.45,7.67-20.54,7.67-33.27v-43.97l8.39-16.78,13.6,2.6v59.01c0,15.62-3.47,29.65-10.41,42.09-6.94,12.44-16.39,22.28-28.35,29.51-11.96,7.23-25.65,10.85-41.08,10.85ZM864.61,309.51c11.38,0,21.45-2.55,30.23-7.67,8.77-5.11,15.67-12.2,20.68-21.26,5.01-9.06,7.52-19.48,7.52-31.24s-2.51-22.23-7.52-31.39c-5.02-9.16-11.91-16.3-20.68-21.41-8.78-5.11-18.85-7.67-30.23-7.67s-21.51,2.56-30.38,7.67c-8.87,5.11-15.82,12.25-20.83,21.41-5.02,9.16-7.52,19.63-7.52,31.39s2.5,22.18,7.52,31.24c5.01,9.07,11.96,16.16,20.83,21.26,8.87,5.11,18.99,7.67,30.38,7.67Z" fill="#a0d6e0"/>
      <path d="M1004.04,139.99c-4.24,0-7.91-1.54-10.99-4.63-3.09-3.08-4.63-6.84-4.63-11.28,0-4.82,1.59-8.63,4.77-11.43,3.18-2.79,6.89-4.19,11.14-4.19s7.67,1.4,10.85,4.19c3.18,2.8,4.77,6.61,4.77,11.43,0,4.44-1.55,8.2-4.63,11.28-3.09,3.09-6.85,4.63-11.28,4.63ZM1004.33,328.31c-3.47,0-6.22-1.01-8.24-3.04s-3.04-4.77-3.04-8.25v-135.67c0-3.47,1.01-6.22,3.04-8.24,2.02-2.03,4.77-3.04,8.24-3.04,3.28,0,5.93,1.01,7.96,3.04,2.03,2.02,3.04,4.77,3.04,8.24v135.67c0,3.47-1.01,6.22-3.04,8.25s-4.68,3.04-7.96,3.04Z" fill="#a0d6e0"/>
      <path d="M1127.27,329.76c-11.38,0-22.66-1.93-33.85-5.79-11.19-3.86-20.25-9.64-27.19-17.36-2.12-2.31-2.99-4.92-2.6-7.81.38-2.89,1.83-5.4,4.34-7.52,2.7-1.93,5.5-2.7,8.39-2.31,2.89.39,5.3,1.64,7.23,3.76,4.63,5.4,10.75,9.55,18.37,12.44,7.62,2.89,16.06,4.34,25.31,4.34,14.27,0,24.59-2.46,30.95-7.38s9.64-10.85,9.84-17.79c0-6.94-3.28-12.68-9.84-17.21-6.56-4.53-17.36-8.05-32.4-10.56-19.48-3.08-33.75-8.48-42.81-16.2-9.07-7.71-13.6-16.87-13.6-27.48,0-9.84,2.6-18.03,7.81-24.59,5.21-6.55,12.15-11.47,20.83-14.75,8.68-3.28,18.23-4.92,28.64-4.92,12.92,0,24.06,2.22,33.41,6.65,9.35,4.44,16.92,10.41,22.71,17.94,1.93,2.51,2.7,5.11,2.31,7.81-.39,2.7-1.93,4.92-4.63,6.65-2.31,1.35-4.97,1.79-7.96,1.3-2.99-.48-5.55-1.88-7.67-4.2-4.82-5.59-10.41-9.69-16.78-12.29s-13.7-3.91-21.99-3.91c-10.61,0-19.09,2.17-25.46,6.51s-9.55,9.79-9.55,16.35c0,4.44,1.2,8.29,3.62,11.57,2.41,3.28,6.55,6.17,12.44,8.68,5.88,2.51,14.13,4.63,24.73,6.36,14.46,2.31,25.89,5.74,34.28,10.27,8.39,4.53,14.37,9.84,17.94,15.91,3.57,6.08,5.35,12.68,5.35,19.82,0,9.07-2.65,17.02-7.96,23.87-5.31,6.85-12.63,12.2-21.99,16.06-9.36,3.86-20.11,5.79-32.26,5.79Z" fill="#a0d6e0"/>
      <path d="M1217.82,195.24c-2.89,0-5.31-.91-7.23-2.75-1.93-1.83-2.89-4.1-2.89-6.8,0-2.89.96-5.25,2.89-7.09,1.93-1.83,4.34-2.75,7.23-2.75h73.77c2.89,0,5.3.92,7.23,2.75,1.92,1.84,2.89,4.19,2.89,7.09,0,2.7-.97,4.97-2.89,6.8-1.93,1.84-4.34,2.75-7.23,2.75h-73.77ZM1289.85,328.31c-10.22,0-19.34-2.41-27.34-7.23-8-4.82-14.32-11.43-18.95-19.82-4.63-8.39-6.94-17.98-6.94-28.78v-141.46c0-3.28,1.01-5.98,3.04-8.1,2.02-2.12,4.67-3.18,7.96-3.18s5.98,1.06,8.1,3.18c2.12,2.12,3.18,4.82,3.18,8.1v141.46c0,9.84,2.89,17.89,8.68,24.16,5.79,6.27,13.21,9.4,22.28,9.4h7.81c3.08,0,5.59,1.06,7.52,3.18,1.92,2.12,2.89,4.82,2.89,8.1s-1.16,5.93-3.47,7.96c-2.31,2.02-5.21,3.04-8.68,3.04h-6.07Z" fill="#a0d6e0"/>
    </g>
  </g>
</svg>